<mxfile host="app.diagrams.net" modified="2022-05-25T08:18:57.892Z" agent="5.0 (Windows NT 10.0; Win64; x64) AppleWebKit/537.36 (KHTML, like Gecko) Chrome/101.0.4951.67 Safari/537.36" etag="MItTp20HZ43hl39ENG2L" version="18.1.2" type="github">
  <diagram id="dh183BxA5PaySKPDHkof" name="Page-1">
    <mxGraphModel dx="1185" dy="662" grid="1" gridSize="10" guides="1" tooltips="1" connect="1" arrows="1" fold="1" page="1" pageScale="1" pageWidth="827" pageHeight="1169" math="0" shadow="0">
      <root>
        <mxCell id="0" />
        <mxCell id="1" parent="0" />
        <mxCell id="TNsMiLaU0lePPs346AUm-2" value="255" style="ellipse;whiteSpace=wrap;html=1;aspect=fixed;" parent="1" vertex="1">
          <mxGeometry x="90" y="440" width="30" height="30" as="geometry" />
        </mxCell>
        <mxCell id="TNsMiLaU0lePPs346AUm-3" value="255" style="ellipse;whiteSpace=wrap;html=1;aspect=fixed;fillColor=#ffe6cc;strokeColor=#d79b00;" parent="1" vertex="1">
          <mxGeometry x="140" y="440" width="30" height="30" as="geometry" />
        </mxCell>
        <mxCell id="TNsMiLaU0lePPs346AUm-4" value="300" style="ellipse;whiteSpace=wrap;html=1;aspect=fixed;fillColor=#ffe6cc;strokeColor=#d79b00;" parent="1" vertex="1">
          <mxGeometry x="200" y="400" width="30" height="30" as="geometry" />
        </mxCell>
        <mxCell id="TNsMiLaU0lePPs346AUm-5" value="98" style="ellipse;whiteSpace=wrap;html=1;aspect=fixed;fillColor=#ffe6cc;strokeColor=#d79b00;" parent="1" vertex="1">
          <mxGeometry x="250" y="470" width="30" height="30" as="geometry" />
        </mxCell>
        <mxCell id="TNsMiLaU0lePPs346AUm-6" value="285" style="ellipse;whiteSpace=wrap;html=1;aspect=fixed;" parent="1" vertex="1">
          <mxGeometry x="310" y="420" width="30" height="30" as="geometry" />
        </mxCell>
        <mxCell id="TNsMiLaU0lePPs346AUm-7" value="312" style="ellipse;whiteSpace=wrap;html=1;aspect=fixed;" parent="1" vertex="1">
          <mxGeometry x="360" y="380" width="30" height="30" as="geometry" />
        </mxCell>
        <mxCell id="TNsMiLaU0lePPs346AUm-10" value="312" style="ellipse;whiteSpace=wrap;html=1;aspect=fixed;" parent="1" vertex="1">
          <mxGeometry x="410" y="380" width="30" height="30" as="geometry" />
        </mxCell>
        <mxCell id="TNsMiLaU0lePPs346AUm-11" value="365" style="ellipse;whiteSpace=wrap;html=1;aspect=fixed;fillColor=#ffe6cc;strokeColor=#d79b00;" parent="1" vertex="1">
          <mxGeometry x="460" y="340" width="30" height="30" as="geometry" />
        </mxCell>
        <mxCell id="TNsMiLaU0lePPs346AUm-12" value="prediff=0&lt;br&gt;curdiff=0" style="text;html=1;resizable=0;autosize=1;align=center;verticalAlign=middle;points=[];fillColor=none;strokeColor=default;rounded=0;" parent="1" vertex="1">
          <mxGeometry x="70" y="490" width="60" height="30" as="geometry" />
        </mxCell>
        <mxCell id="TNsMiLaU0lePPs346AUm-14" value="prediff=0&lt;br&gt;curdiff&amp;gt;0&lt;br&gt;峰值" style="text;html=1;resizable=0;autosize=1;align=center;verticalAlign=middle;points=[];fillColor=none;strokeColor=default;rounded=0;" parent="1" vertex="1">
          <mxGeometry x="140" y="490" width="60" height="50" as="geometry" />
        </mxCell>
        <mxCell id="TNsMiLaU0lePPs346AUm-15" value="prediff&amp;gt;0&lt;br&gt;curdiff&amp;lt;0&lt;br&gt;峰值" style="text;html=1;resizable=0;autosize=1;align=center;verticalAlign=middle;points=[];fillColor=none;strokeColor=default;rounded=0;" parent="1" vertex="1">
          <mxGeometry x="190" y="340" width="60" height="50" as="geometry" />
        </mxCell>
        <mxCell id="TNsMiLaU0lePPs346AUm-16" value="prediff&amp;lt;00&lt;br&gt;curdiff&amp;gt;0&lt;br&gt;峰值" style="text;html=1;resizable=0;autosize=1;align=center;verticalAlign=middle;points=[];fillColor=none;strokeColor=default;rounded=0;" parent="1" vertex="1">
          <mxGeometry x="245" y="510" width="70" height="50" as="geometry" />
        </mxCell>
        <mxCell id="TNsMiLaU0lePPs346AUm-17" value="最右边的值默认为峰值&lt;br&gt;因为要判断nums[i]是否为峰值&lt;br&gt;必须要计算nums[i+1]-nums[i]&lt;br&gt;来获得curdiff" style="text;html=1;resizable=0;autosize=1;align=center;verticalAlign=middle;points=[];fillColor=none;strokeColor=none;rounded=0;" parent="1" vertex="1">
          <mxGeometry x="470" y="380" width="170" height="60" as="geometry" />
        </mxCell>
        <mxCell id="TNsMiLaU0lePPs346AUm-18" value="" style="endArrow=none;dashed=1;html=1;dashPattern=1 3;strokeWidth=2;rounded=0;" parent="1" edge="1">
          <mxGeometry width="50" height="50" relative="1" as="geometry">
            <mxPoint x="450" y="490" as="sourcePoint" />
            <mxPoint x="450" y="260" as="targetPoint" />
          </mxGeometry>
        </mxCell>
        <mxCell id="TNsMiLaU0lePPs346AUm-19" value="数组遍历终点&lt;br&gt;for i =&amp;nbsp; 0; i&amp;lt;nums.zie()-1" style="text;html=1;resizable=0;autosize=1;align=center;verticalAlign=middle;points=[];fillColor=none;strokeColor=none;rounded=0;" parent="1" vertex="1">
          <mxGeometry x="390" y="500" width="140" height="30" as="geometry" />
        </mxCell>
        <mxCell id="TNsMiLaU0lePPs346AUm-21" value="" style="html=1;shadow=0;dashed=0;align=center;verticalAlign=middle;shape=mxgraph.arrows2.arrow;dy=0.8;dx=26;direction=north;notch=0;rounded=0;strokeColor=#b85450;fillColor=#f8cecc;" parent="1" vertex="1">
          <mxGeometry x="180" y="440" width="20" height="40" as="geometry" />
        </mxCell>
        <mxCell id="TNsMiLaU0lePPs346AUm-22" value="" style="html=1;shadow=0;dashed=0;align=center;verticalAlign=middle;shape=mxgraph.arrows2.arrow;dy=0.8;dx=26;direction=north;notch=0;rounded=0;strokeColor=#b85450;fillColor=#f8cecc;rotation=-182;" parent="1" vertex="1">
          <mxGeometry x="240" y="395" width="20" height="40" as="geometry" />
        </mxCell>
        <mxCell id="TNsMiLaU0lePPs346AUm-24" value="" style="html=1;shadow=0;dashed=0;align=center;verticalAlign=middle;shape=mxgraph.arrows2.arrow;dy=0.8;dx=26;direction=east;notch=0;rounded=0;strokeColor=#b85450;fillColor=#f8cecc;rotation=-90;" parent="1" vertex="1">
          <mxGeometry x="280" y="470" width="40" height="20" as="geometry" />
        </mxCell>
      </root>
    </mxGraphModel>
  </diagram>
</mxfile>
